<svg width="319" height="41" viewBox="0 0 319 41" fill="none" xmlns="http://www.w3.org/2000/svg">
<path d="M7.4 34.216C4.968 34.312 3.128 33.816 1.88 32.728C0.664 31.64 0.0560001 30.072 0.0560001 28.024C0.0560001 26.776 0.328 25.24 0.872 23.416C2.376 18.808 4.488 14.776 7.208 11.32C9.032 9.016 10.952 7.08 12.968 5.512C14.984 3.944 16.984 2.76 18.968 1.96C20.952 1.128 22.808 0.711998 24.536 0.711998C24.696 0.711998 24.888 0.727998 25.112 0.759997C25.336 0.759997 25.592 0.775998 25.88 0.808C26.936 0.967999 27.864 1.432 28.664 2.2C29.496 2.968 29.912 3.928 29.912 5.08C29.912 5.688 29.784 6.328 29.528 7C29.208 7.896 28.408 9.048 27.128 10.456C25.88 11.864 24.312 13.208 22.424 14.488C20.568 15.736 18.616 16.648 16.568 17.224C15.928 17.384 15.464 17.464 15.176 17.464C14.056 17.464 13.496 16.952 13.496 15.928C13.496 14.68 14.328 13.032 15.992 10.984C16.44 10.376 16.84 10.072 17.192 10.072C17.384 10.104 17.48 10.248 17.48 10.504C17.448 10.696 17.272 11 16.952 11.416C15.768 12.984 15.176 14.264 15.176 15.256C15.176 15.64 15.272 15.928 15.464 16.12C15.688 16.312 15.96 16.376 16.28 16.312C18.136 15.928 19.8 15.256 21.272 14.296C22.744 13.336 24.008 12.184 25.064 10.84C26.152 9.464 26.984 8.024 27.56 6.52C27.816 5.848 27.944 5.24 27.944 4.696C27.944 3.896 27.672 3.288 27.128 2.872C26.616 2.424 25.96 2.2 25.16 2.2C23.176 2.2 20.632 3.224 17.528 5.272C15.416 6.648 13.368 8.312 11.384 10.264C9.4 12.216 7.64 14.328 6.104 16.6C4.6 18.84 3.48 21.112 2.744 23.416C2.296 24.824 2.072 26.136 2.072 27.352C2.072 29.08 2.536 30.408 3.464 31.336C4.424 32.296 5.752 32.776 7.448 32.776C9.304 32.776 11.528 32.024 14.12 30.52C15.752 29.56 17.368 28.456 18.968 27.208C20.568 25.96 22.056 24.648 23.432 23.272C24.84 21.896 26.024 20.568 26.984 19.288C27.24 19.032 27.448 18.904 27.608 18.904C27.704 18.904 27.752 18.968 27.752 19.096C27.752 19.416 27.624 19.752 27.368 20.104C26.6 21.128 25.72 22.168 24.728 23.224C23.768 24.248 22.68 25.304 21.464 26.392C19.864 27.832 18.216 29.144 16.52 30.328C14.824 31.48 13.192 32.392 11.624 33.064C10.056 33.768 8.648 34.152 7.4 34.216ZM25.2155 33.832C24.5435 33.832 24.2555 33.496 24.3515 32.824C24.5435 31.608 24.8795 30.392 25.3595 29.176C25.6155 28.536 25.9355 27.8 26.3195 26.968C26.7355 26.136 27.2155 25.208 27.7595 24.184C28.0475 23.64 28.2875 23.16 28.4795 22.744C28.7035 22.328 28.8795 21.992 29.0075 21.736C29.2315 21.288 29.4555 20.808 29.6795 20.296C29.9355 19.784 30.1915 19.224 30.4475 18.616C31.6635 15.96 32.7035 13.88 33.5675 12.376C34.4635 10.84 35.4235 9.752 36.4475 9.112C36.5115 9.048 36.6875 9.048 36.9755 9.112C37.2635 9.144 37.5355 9.208 37.7915 9.304C38.0795 9.4 38.2555 9.512 38.3195 9.64C38.4155 9.864 38.4635 10.184 38.4635 10.6C38.4635 11.88 37.8715 13.416 36.6875 15.208C36.0475 16.168 35.2315 17.224 34.2395 18.376C33.2795 19.496 32.1435 20.712 30.8315 22.024L29.9675 23.416C29.0075 24.952 28.2555 26.264 27.7115 27.352C27.1995 28.44 27.0075 29.4 27.1355 30.232C27.1995 30.424 27.2795 30.52 27.3755 30.52C27.4715 30.52 27.6315 30.44 27.8555 30.28C28.0795 30.12 28.3035 29.928 28.5275 29.704C28.7835 29.48 29.0235 29.208 29.2475 28.888C29.4075 28.728 29.5355 28.552 29.6315 28.36C29.7595 28.168 29.8875 27.992 30.0155 27.832C30.2075 27.48 30.3995 27.192 30.5915 26.968C31.1995 25.944 31.7115 25.224 32.1275 24.808C32.8315 24.104 33.4555 23.752 33.9995 23.752C34.6395 23.752 35.1995 24.104 35.6795 24.808C36.1915 25.48 36.7355 26.456 37.3115 27.736C37.7275 28.696 38.1115 29.432 38.4635 29.944C38.8155 30.424 39.1515 30.664 39.4715 30.664C39.7915 30.664 40.1595 30.472 40.5755 30.088C40.9595 29.736 41.2955 29.544 41.5835 29.512C41.7755 29.736 41.7595 30.024 41.5355 30.376C41.3115 30.696 40.9755 31 40.5275 31.288C40.1115 31.608 39.6955 31.864 39.2795 32.056C38.8635 32.248 38.5435 32.312 38.3195 32.248C37.4235 31.992 36.7195 31.544 36.2075 30.904C35.7275 30.232 35.2475 29.368 34.7675 28.312C34.6075 27.96 34.4635 27.656 34.3355 27.4C34.2075 27.112 34.0795 26.888 33.9515 26.728C33.7275 26.408 33.4235 26.248 33.0395 26.248C32.7515 26.248 32.4155 26.392 32.0315 26.68C31.6475 27 31.2635 27.384 30.8795 27.832C30.4955 28.248 30.1275 28.76 29.7755 29.368C29.5515 29.688 29.3755 29.944 29.2475 30.136C29.1515 30.296 29.0715 30.408 29.0075 30.472C28.8475 30.696 28.5915 31.016 28.2395 31.432C27.9195 31.88 27.5355 32.424 27.0875 33.064C26.9275 33.256 26.6715 33.432 26.3195 33.592C25.9995 33.752 25.6795 33.832 25.3595 33.832H25.2155ZM31.0715 20.056C31.1675 20.12 31.4075 19.976 31.7915 19.624C32.1755 19.24 32.6075 18.76 33.0875 18.184C33.5995 17.576 34.0955 16.952 34.5755 16.312C35.0875 15.64 35.4875 15.048 35.7755 14.536C36.7675 12.84 37.2635 11.72 37.2635 11.176C37.2635 10.952 37.1835 10.792 37.0235 10.696C36.7035 10.44 36.2715 10.584 35.7275 11.128C35.1835 11.64 34.6395 12.328 34.0955 13.192C33.5515 14.024 33.0875 14.856 32.7035 15.688C32.4795 16.2 32.2395 16.776 31.9835 17.416C31.7595 18.056 31.5675 18.632 31.4075 19.144C31.2475 19.624 31.1355 19.928 31.0715 20.056ZM50.198 32.296C50.134 32.296 50.07 32.28 50.006 32.248C49.942 32.248 49.878 32.232 49.814 32.2C49.366 31.976 49.078 31.656 48.95 31.24C48.822 30.824 48.79 30.296 48.854 29.656C48.918 29.4 48.982 28.952 49.046 28.312C49.142 27.672 49.254 27.16 49.382 26.776L46.934 29.128L45.59 30.424C44.662 31.352 43.894 31.816 43.286 31.816C43.03 31.816 42.822 31.72 42.662 31.528C42.374 31.176 42.23 30.744 42.23 30.232C42.23 29.56 42.406 28.84 42.758 28.072C43.11 27.304 43.526 26.568 44.006 25.864C44.486 25.128 44.918 24.52 45.302 24.04C46.262 22.856 47.19 21.928 48.086 21.256C49.014 20.584 49.974 20.248 50.966 20.248C51.51 20.248 52.038 20.344 52.55 20.536C53.094 20.728 53.59 21.048 54.038 21.496L54.086 21.544C54.086 21.64 54.006 21.736 53.846 21.832C53.782 21.896 53.718 21.944 53.654 21.976C53.622 22.008 53.59 22.04 53.558 22.072C53.174 22.456 52.742 23.096 52.262 23.992C51.782 24.888 51.366 25.832 51.014 26.824C50.662 27.784 50.486 28.616 50.486 29.32C50.486 29.96 50.646 30.392 50.966 30.616C51.126 30.712 51.302 30.76 51.494 30.76C51.91 30.76 52.486 30.504 53.222 29.992C53.254 29.96 53.318 29.912 53.414 29.848C53.542 29.752 53.718 29.624 53.942 29.464C54.198 29.272 54.406 29.176 54.566 29.176C54.726 29.176 54.806 29.24 54.806 29.368C54.806 29.56 54.678 29.784 54.422 30.04C54.23 30.2 54.006 30.376 53.75 30.568C53.526 30.76 53.254 30.952 52.934 31.144C52.454 31.496 51.958 31.768 51.446 31.96C50.934 32.184 50.518 32.296 50.198 32.296ZM44.774 29.224C45.446 29.224 46.694 28.232 48.518 26.248C48.998 25.704 49.43 25.192 49.814 24.712C50.198 24.2 50.55 23.704 50.87 23.224C51.446 22.296 51.638 21.656 51.446 21.304C51.35 21.112 51.158 21.016 50.87 21.016C50.518 21.016 50.038 21.208 49.43 21.592C48.822 21.944 48.198 22.408 47.558 22.984C46.95 23.56 46.39 24.136 45.878 24.712C45.526 25.16 45.174 25.784 44.822 26.584C44.47 27.384 44.294 28.04 44.294 28.552C44.294 29 44.454 29.224 44.774 29.224ZM61.5736 20.488C61.1576 20.488 60.9496 20.392 60.9496 20.2C60.9496 20.04 61.0616 19.816 61.2856 19.528C61.5416 19.208 61.8296 18.936 62.1496 18.712C62.8536 18.264 63.3976 17.88 63.7816 17.56C64.1976 17.24 64.6936 16.696 65.2696 15.928C65.3016 15.992 65.3176 16.12 65.3176 16.312C65.3176 16.728 65.1416 17.24 64.7896 17.848C64.4696 18.424 64.1016 18.952 63.6856 19.432C63.2696 19.912 62.9016 20.216 62.5816 20.344C62.2936 20.44 61.9576 20.488 61.5736 20.488ZM57.3016 32.248C57.0456 32.248 56.8056 32.152 56.5816 31.96C56.3576 31.768 56.2456 31.512 56.2456 31.192C56.2456 30.52 56.7096 29.288 57.6376 27.496L58.1656 26.44C58.2296 26.376 58.3096 26.216 58.4056 25.96C58.5336 25.704 58.7096 25.368 58.9336 24.952C59.1576 24.504 59.3336 24.104 59.4616 23.752C59.5896 23.4 59.6856 23.064 59.7496 22.744C59.7496 22.712 59.8136 22.648 59.9416 22.552C60.0696 22.456 60.1976 22.376 60.3256 22.312L60.6136 22.264C60.8696 22.264 61.0776 22.312 61.2376 22.408C61.4296 22.504 61.4936 22.632 61.4296 22.792C61.2056 23.272 61.0136 23.688 60.8536 24.04C60.6936 24.392 60.5656 24.696 60.4696 24.952H60.4216C60.0696 25.752 59.7656 26.52 59.5096 27.256C59.2856 27.96 59.1896 28.632 59.2216 29.272L59.2696 30.568C59.2376 30.888 59.1256 31.16 58.9336 31.384C58.8056 31.48 58.6296 31.592 58.4056 31.72C58.1816 31.88 57.8936 32.04 57.5416 32.2C57.5096 32.232 57.4296 32.248 57.3016 32.248ZM62.1196 31.768C61.5436 31.768 61.2556 31.544 61.2556 31.096C61.2556 30.808 61.3516 30.44 61.5436 29.992C61.7676 29.544 61.9916 29.112 62.2156 28.696C62.8236 27.608 63.3836 26.552 63.8956 25.528C64.4076 24.504 64.9036 23.416 65.3836 22.264C65.6076 21.752 65.9436 21.496 66.3916 21.496C66.8716 21.496 67.0156 21.784 66.8236 22.36C66.6316 22.84 66.4396 23.272 66.2476 23.656C65.3516 25.48 64.9036 26.712 64.9036 27.352C64.9036 27.64 64.9996 27.816 65.1916 27.88C65.6396 27.528 65.9756 27.272 66.1996 27.112C66.4236 26.92 66.5516 26.808 66.5836 26.776C67.0316 26.424 67.5276 26.024 68.0716 25.576C68.6476 25.096 69.2716 24.552 69.9436 23.944C70.9996 22.984 71.8796 22.504 72.5836 22.504C73.4476 22.504 73.8156 23.288 73.6876 24.856C73.6556 25.464 73.6556 26.056 73.6876 26.632C73.7196 26.76 73.7356 26.952 73.7356 27.208C73.7356 27.432 73.7356 27.704 73.7356 28.024C73.7356 28.344 73.9276 28.504 74.3116 28.504C74.7596 28.504 75.1756 28.376 75.5596 28.12L76.6156 27.4L77.6716 26.728C77.7356 26.696 77.8476 26.68 78.0076 26.68C78.1996 26.68 78.1996 26.824 78.0076 27.112C75.9916 29.608 74.3276 30.856 73.0156 30.856C72.7596 30.856 72.5036 30.808 72.2476 30.712C72.0236 30.616 71.8636 30.344 71.7676 29.896C71.6716 29.416 71.6076 28.904 71.5756 28.36C71.5756 27.816 71.5756 27.4 71.5756 27.112L71.6236 25.528C71.6236 24.856 71.4476 24.52 71.0956 24.52C70.2636 24.52 68.2156 26.232 64.9516 29.656C64.6956 29.976 64.2956 30.408 63.7516 30.952C63.2076 31.496 62.6636 31.768 62.1196 31.768ZM94.025 34.216C91.593 34.312 89.753 33.816 88.505 32.728C87.289 31.64 86.681 30.072 86.681 28.024C86.681 26.776 86.953 25.24 87.497 23.416C89.001 18.808 91.113 14.776 93.833 11.32C95.657 9.016 97.577 7.08 99.593 5.512C101.609 3.944 103.609 2.76 105.593 1.96C107.577 1.128 109.433 0.711998 111.161 0.711998C111.321 0.711998 111.513 0.727998 111.737 0.759997C111.961 0.759997 112.217 0.775998 112.505 0.808C113.561 0.967999 114.489 1.432 115.289 2.2C116.121 2.968 116.537 3.928 116.537 5.08C116.537 5.688 116.409 6.328 116.153 7C115.833 7.896 115.033 9.048 113.753 10.456C112.505 11.864 110.937 13.208 109.049 14.488C107.193 15.736 105.241 16.648 103.193 17.224C102.553 17.384 102.089 17.464 101.801 17.464C100.681 17.464 100.121 16.952 100.121 15.928C100.121 14.68 100.953 13.032 102.617 10.984C103.065 10.376 103.465 10.072 103.817 10.072C104.009 10.104 104.105 10.248 104.105 10.504C104.073 10.696 103.897 11 103.577 11.416C102.393 12.984 101.801 14.264 101.801 15.256C101.801 15.64 101.897 15.928 102.089 16.12C102.313 16.312 102.585 16.376 102.905 16.312C104.761 15.928 106.425 15.256 107.897 14.296C109.369 13.336 110.633 12.184 111.689 10.84C112.777 9.464 113.609 8.024 114.185 6.52C114.441 5.848 114.569 5.24 114.569 4.696C114.569 3.896 114.297 3.288 113.753 2.872C113.241 2.424 112.585 2.2 111.785 2.2C109.801 2.2 107.257 3.224 104.153 5.272C102.041 6.648 99.993 8.312 98.009 10.264C96.025 12.216 94.265 14.328 92.729 16.6C91.225 18.84 90.105 21.112 89.369 23.416C88.921 24.824 88.697 26.136 88.697 27.352C88.697 29.08 89.161 30.408 90.089 31.336C91.049 32.296 92.377 32.776 94.073 32.776C95.929 32.776 98.153 32.024 100.745 30.52C102.377 29.56 103.993 28.456 105.593 27.208C107.193 25.96 108.681 24.648 110.057 23.272C111.465 21.896 112.649 20.568 113.609 19.288C113.865 19.032 114.073 18.904 114.233 18.904C114.329 18.904 114.377 18.968 114.377 19.096C114.377 19.416 114.249 19.752 113.993 20.104C113.225 21.128 112.345 22.168 111.353 23.224C110.393 24.248 109.305 25.304 108.089 26.392C106.489 27.832 104.841 29.144 103.145 30.328C101.449 31.48 99.817 32.392 98.249 33.064C96.681 33.768 95.273 34.152 94.025 34.216ZM111.841 33.832C111.168 33.832 110.88 33.496 110.976 32.824C111.168 31.608 111.505 30.392 111.985 29.176C112.241 28.536 112.561 27.8 112.945 26.968C113.361 26.136 113.841 25.208 114.385 24.184C114.673 23.64 114.913 23.16 115.105 22.744C115.329 22.328 115.505 21.992 115.633 21.736C115.857 21.288 116.081 20.808 116.305 20.296C116.561 19.784 116.817 19.224 117.073 18.616C118.289 15.96 119.329 13.88 120.193 12.376C121.089 10.84 122.049 9.752 123.073 9.112C123.137 9.048 123.313 9.048 123.601 9.112C123.889 9.144 124.161 9.208 124.417 9.304C124.705 9.4 124.881 9.512 124.945 9.64C125.041 9.864 125.089 10.184 125.089 10.6C125.089 11.88 124.497 13.416 123.312 15.208C122.673 16.168 121.857 17.224 120.865 18.376C119.905 19.496 118.769 20.712 117.457 22.024L116.593 23.416C115.633 24.952 114.881 26.264 114.337 27.352C113.825 28.44 113.633 29.4 113.761 30.232C113.825 30.424 113.905 30.52 114.001 30.52C114.097 30.52 114.257 30.44 114.48 30.28C114.705 30.12 114.929 29.928 115.153 29.704C115.409 29.48 115.649 29.208 115.873 28.888C116.033 28.728 116.161 28.552 116.257 28.36C116.385 28.168 116.513 27.992 116.641 27.832C116.833 27.48 117.025 27.192 117.217 26.968C117.825 25.944 118.337 25.224 118.753 24.808C119.457 24.104 120.081 23.752 120.625 23.752C121.265 23.752 121.825 24.104 122.305 24.808C122.817 25.48 123.361 26.456 123.937 27.736C124.353 28.696 124.737 29.432 125.089 29.944C125.441 30.424 125.777 30.664 126.097 30.664C126.417 30.664 126.785 30.472 127.201 30.088C127.585 29.736 127.921 29.544 128.209 29.512C128.401 29.736 128.385 30.024 128.161 30.376C127.937 30.696 127.601 31 127.153 31.288C126.737 31.608 126.321 31.864 125.905 32.056C125.489 32.248 125.169 32.312 124.945 32.248C124.049 31.992 123.345 31.544 122.833 30.904C122.353 30.232 121.873 29.368 121.393 28.312C121.233 27.96 121.089 27.656 120.961 27.4C120.833 27.112 120.705 26.888 120.577 26.728C120.353 26.408 120.049 26.248 119.665 26.248C119.377 26.248 119.041 26.392 118.657 26.68C118.273 27 117.889 27.384 117.505 27.832C117.121 28.248 116.753 28.76 116.401 29.368C116.177 29.688 116.001 29.944 115.873 30.136C115.777 30.296 115.697 30.408 115.633 30.472C115.473 30.696 115.217 31.016 114.865 31.432C114.545 31.88 114.161 32.424 113.713 33.064C113.553 33.256 113.297 33.432 112.945 33.592C112.625 33.752 112.305 33.832 111.985 33.832H111.841ZM117.697 20.056C117.793 20.12 118.033 19.976 118.417 19.624C118.801 19.24 119.233 18.76 119.713 18.184C120.225 17.576 120.721 16.952 121.201 16.312C121.713 15.64 122.113 15.048 122.401 14.536C123.393 12.84 123.889 11.72 123.889 11.176C123.889 10.952 123.809 10.792 123.648 10.696C123.329 10.44 122.897 10.584 122.353 11.128C121.809 11.64 121.265 12.328 120.721 13.192C120.177 14.024 119.713 14.856 119.329 15.688C119.105 16.2 118.865 16.776 118.609 17.416C118.385 18.056 118.193 18.632 118.033 19.144C117.873 19.624 117.761 19.928 117.697 20.056ZM136.823 32.296C136.759 32.296 136.695 32.28 136.631 32.248C136.567 32.248 136.503 32.232 136.439 32.2C135.991 31.976 135.703 31.656 135.575 31.24C135.447 30.824 135.415 30.296 135.479 29.656C135.543 29.4 135.607 28.952 135.671 28.312C135.767 27.672 135.879 27.16 136.007 26.776L133.559 29.128L132.215 30.424C131.287 31.352 130.519 31.816 129.911 31.816C129.655 31.816 129.447 31.72 129.287 31.528C128.999 31.176 128.855 30.744 128.855 30.232C128.855 29.56 129.031 28.84 129.383 28.072C129.735 27.304 130.151 26.568 130.631 25.864C131.111 25.128 131.543 24.52 131.927 24.04C132.887 22.856 133.815 21.928 134.711 21.256C135.639 20.584 136.599 20.248 137.591 20.248C138.135 20.248 138.663 20.344 139.175 20.536C139.719 20.728 140.215 21.048 140.663 21.496L140.711 21.544C140.711 21.64 140.631 21.736 140.471 21.832C140.407 21.896 140.343 21.944 140.279 21.976C140.247 22.008 140.215 22.04 140.183 22.072C139.799 22.456 139.367 23.096 138.887 23.992C138.407 24.888 137.991 25.832 137.639 26.824C137.287 27.784 137.111 28.616 137.111 29.32C137.111 29.96 137.271 30.392 137.591 30.616C137.751 30.712 137.927 30.76 138.119 30.76C138.535 30.76 139.111 30.504 139.847 29.992C139.879 29.96 139.943 29.912 140.039 29.848C140.167 29.752 140.343 29.624 140.567 29.464C140.823 29.272 141.031 29.176 141.191 29.176C141.351 29.176 141.431 29.24 141.431 29.368C141.431 29.56 141.303 29.784 141.047 30.04C140.855 30.2 140.631 30.376 140.375 30.568C140.151 30.76 139.879 30.952 139.559 31.144C139.079 31.496 138.583 31.768 138.071 31.96C137.559 32.184 137.143 32.296 136.823 32.296ZM131.399 29.224C132.071 29.224 133.319 28.232 135.143 26.248C135.623 25.704 136.055 25.192 136.439 24.712C136.823 24.2 137.175 23.704 137.495 23.224C138.071 22.296 138.263 21.656 138.071 21.304C137.975 21.112 137.783 21.016 137.495 21.016C137.143 21.016 136.663 21.208 136.055 21.592C135.447 21.944 134.823 22.408 134.183 22.984C133.575 23.56 133.015 24.136 132.503 24.712C132.151 25.16 131.799 25.784 131.447 26.584C131.095 27.384 130.919 28.04 130.919 28.552C130.919 29 131.079 29.224 131.399 29.224ZM143.255 32.008C142.839 32.008 142.631 31.64 142.631 30.904C142.631 30.296 142.775 29.704 143.063 29.128C143.799 27.72 144.471 26.328 145.079 24.952C145.495 24.12 145.879 23.32 146.231 22.552C146.615 21.784 146.967 21.08 147.287 20.44C147.479 20.248 147.671 20.152 147.863 20.152C148.279 20.152 148.407 20.344 148.247 20.728C148.183 20.952 148.087 21.224 147.959 21.544C147.863 21.832 147.735 22.184 147.575 22.6C147.063 23.944 146.759 24.888 146.663 25.432C147.559 24.632 148.471 23.896 149.399 23.224C150.359 22.52 151.255 21.944 152.087 21.496C152.919 21.048 153.623 20.824 154.199 20.824C154.711 20.824 154.967 21.032 154.967 21.448C154.967 21.8 154.807 22.184 154.487 22.6C154.167 22.984 153.847 23.176 153.527 23.176C153.367 23.176 153.239 23.128 153.143 23.032C153.047 23 152.855 22.984 152.567 22.984C151.543 22.984 150.471 23.48 149.351 24.472C148.167 25.464 147.095 26.664 146.135 28.072C145.175 29.448 144.471 30.648 144.023 31.672C143.799 31.896 143.543 32.008 143.255 32.008ZM157.667 20.488C157.251 20.488 157.043 20.392 157.043 20.2C157.043 20.04 157.155 19.816 157.379 19.528C157.635 19.208 157.923 18.936 158.243 18.712C158.947 18.264 159.491 17.88 159.875 17.56C160.291 17.24 160.787 16.696 161.363 15.928C161.395 15.992 161.411 16.12 161.411 16.312C161.411 16.728 161.235 17.24 160.883 17.848C160.563 18.424 160.195 18.952 159.779 19.432C159.363 19.912 158.995 20.216 158.675 20.344C158.387 20.44 158.051 20.488 157.667 20.488ZM153.395 32.248C153.139 32.248 152.899 32.152 152.675 31.96C152.451 31.768 152.339 31.512 152.339 31.192C152.339 30.52 152.803 29.288 153.731 27.496L154.259 26.44C154.323 26.376 154.403 26.216 154.499 25.96C154.627 25.704 154.803 25.368 155.027 24.952C155.251 24.504 155.427 24.104 155.555 23.752C155.683 23.4 155.779 23.064 155.843 22.744C155.843 22.712 155.907 22.648 156.035 22.552C156.163 22.456 156.291 22.376 156.419 22.312L156.707 22.264C156.963 22.264 157.171 22.312 157.331 22.408C157.523 22.504 157.587 22.632 157.523 22.792C157.299 23.272 157.107 23.688 156.947 24.04C156.787 24.392 156.659 24.696 156.563 24.952H156.515C156.163 25.752 155.859 26.52 155.603 27.256C155.379 27.96 155.283 28.632 155.315 29.272L155.363 30.568C155.331 30.888 155.219 31.16 155.027 31.384C154.899 31.48 154.723 31.592 154.499 31.72C154.275 31.88 153.987 32.04 153.635 32.2C153.603 32.232 153.523 32.248 153.395 32.248ZM158.453 35.464C158.293 35.464 158.213 35.32 158.213 35.032C158.213 34.968 158.213 34.872 158.213 34.744C158.245 34.648 158.277 34.536 158.309 34.408L160.373 29.224L162.821 23.176C162.437 23.144 161.877 23.16 161.141 23.224C160.405 23.256 159.781 23.32 159.269 23.416C159.077 23.448 158.917 23.48 158.789 23.512C158.693 23.512 158.613 23.512 158.549 23.512C158.293 23.512 158.117 23.4 158.021 23.176C158.053 22.984 158.229 22.808 158.549 22.648C158.709 22.584 158.901 22.536 159.125 22.504C159.349 22.44 159.621 22.376 159.941 22.312C160.293 22.248 160.597 22.2 160.853 22.168C161.141 22.136 161.349 22.104 161.477 22.072C161.637 22.04 161.797 22.008 161.957 21.976C162.117 21.944 162.309 21.912 162.533 21.88C162.725 21.848 162.933 21.816 163.157 21.784C163.381 21.752 163.621 21.704 163.877 21.64C164.133 21.288 164.517 20.664 165.029 19.768C165.541 18.872 166.197 17.688 166.997 16.216C167.637 15.032 168.149 14.104 168.533 13.432C168.949 12.728 169.237 12.264 169.397 12.04C169.685 11.656 170.021 11.464 170.405 11.464C170.597 11.464 170.693 11.544 170.693 11.704C170.693 11.736 170.613 11.944 170.453 12.328C170.261 12.648 169.941 13.24 169.493 14.104C169.045 14.968 168.565 15.912 168.053 16.936C167.541 17.96 167.077 18.92 166.661 19.816C166.245 20.712 165.957 21.368 165.797 21.784C165.957 21.752 166.133 21.736 166.325 21.736C166.549 21.736 166.821 21.736 167.141 21.736C167.493 21.736 167.813 21.752 168.101 21.784C168.421 21.784 168.693 21.8 168.917 21.832C169.365 21.928 169.589 22.056 169.589 22.216C169.589 22.28 169.445 22.392 169.157 22.552C168.997 22.616 168.693 22.68 168.245 22.744C167.797 22.808 167.205 22.872 166.469 22.936C166.277 22.936 166.069 22.952 165.845 22.984C165.621 22.984 165.381 23 165.125 23.032C164.165 24.6 162.853 27.208 161.189 30.856C160.581 32.072 160.117 33.016 159.797 33.688C159.477 34.36 159.285 34.76 159.221 34.888C158.933 35.272 158.677 35.464 158.453 35.464ZM167.965 40.84C167.261 40.84 166.685 40.52 166.236 39.88C165.788 39.24 165.564 38.488 165.564 37.624C165.564 37.144 165.644 36.712 165.804 36.328C166.06 35.784 166.268 35.512 166.428 35.512C166.556 35.512 166.62 35.608 166.62 35.8C166.62 35.96 166.572 36.168 166.476 36.424C166.444 36.52 166.428 36.6 166.428 36.664C166.396 36.76 166.38 36.84 166.38 36.904C166.38 37.48 166.54 38.072 166.861 38.68C167.213 39.288 167.645 39.592 168.157 39.592L168.541 39.496C169.309 39.304 170.029 38.872 170.701 38.2C171.405 37.56 172.093 36.76 172.765 35.8C173.661 34.488 174.461 33.064 175.165 31.528C175.869 30.024 176.477 28.52 176.989 27.016C177.501 25.512 177.885 24.152 178.141 22.936C178.141 22.776 178.077 22.696 177.949 22.696C177.725 22.696 177.373 22.952 176.893 23.464C176.509 23.88 176.013 24.456 175.405 25.192C174.797 25.928 174.045 26.808 173.148 27.832L172.381 28.744C171.869 29.352 171.341 29.8 170.797 30.088C170.285 30.344 169.805 30.472 169.357 30.472C168.973 30.472 168.653 30.392 168.396 30.232C168.077 30.008 167.917 29.608 167.917 29.032C167.917 28.104 168.349 26.568 169.213 24.424L169.837 22.888C170.157 22.152 170.429 21.48 170.653 20.872C170.909 20.264 171.149 19.704 171.373 19.192C171.597 18.776 171.853 18.568 172.141 18.568C172.493 18.568 172.557 18.776 172.333 19.192C171.181 21.816 170.509 23.88 170.317 25.384C170.285 25.448 170.269 25.544 170.269 25.672C170.269 25.768 170.269 25.88 170.269 26.008C170.269 26.712 170.557 27.064 171.133 27.064C171.517 27.064 172.061 26.84 172.765 26.392C173.469 25.88 174.349 25.08 175.405 23.992C176.461 22.872 177.725 21.464 179.197 19.768C179.453 19.512 179.693 19.256 179.917 19C180.141 18.744 180.349 18.504 180.541 18.28C180.669 18.152 180.781 18.088 180.877 18.088C180.973 18.088 181.021 18.232 181.021 18.52C181.021 18.808 180.973 19.176 180.877 19.624C180.781 20.04 180.733 20.296 180.733 20.392C180.349 22.728 179.645 25.24 178.621 27.928C177.565 30.584 176.221 33.048 174.589 35.32C172.989 37.592 171.197 39.304 169.213 40.456C168.797 40.712 168.381 40.84 167.965 40.84ZM195.827 18.184C195.443 18.184 195.107 18.12 194.819 17.992C193.955 17.736 193.075 17.192 192.179 16.36C191.283 15.496 190.499 14.472 189.827 13.288C189.187 12.072 188.803 10.872 188.675 9.688C188.643 9.56 188.627 9.4 188.627 9.208C188.627 9.016 188.627 8.792 188.627 8.536C188.627 4.408 191.219 2.344 196.403 2.344C198.963 2.344 201.779 2.744 204.851 3.544C207.923 4.344 211.491 5.416 215.555 6.76C216.579 7.112 217.443 7.4 218.147 7.624C218.851 7.848 219.363 8.008 219.683 8.104C220.771 8.424 221.779 8.584 222.707 8.584C223.731 8.584 224.483 8.392 224.963 8.008C225.443 7.592 225.667 7.144 225.635 6.664V6.472C225.635 6.088 225.747 5.896 225.971 5.896C226.227 5.896 226.499 6.088 226.787 6.472C226.915 6.632 226.979 6.856 226.979 7.144C226.979 7.816 226.611 8.44 225.875 9.016C225.139 9.592 224.019 9.88 222.515 9.88C221.139 9.88 219.619 9.656 217.955 9.208C216.291 8.76 214.131 8.104 211.475 7.24C208.499 6.28 206.051 5.56 204.131 5.08C202.211 4.568 200.419 4.312 198.755 4.312C194.851 4.312 192.371 6.024 191.315 9.448C191.219 9.768 191.171 10.136 191.171 10.552C191.171 11.352 191.379 12.264 191.795 13.288C192.243 14.28 192.787 15.176 193.427 15.976C194.067 16.744 194.691 17.192 195.299 17.32H195.635C196.403 17.32 196.787 17.464 196.787 17.752C196.787 17.848 196.707 17.944 196.547 18.04C196.355 18.136 196.115 18.184 195.827 18.184ZM198.899 35.464C197.395 35.144 196.643 34.328 196.643 33.016C196.643 32.376 196.803 31.528 197.123 30.472C197.443 29.544 197.731 28.728 197.987 28.024C198.275 27.288 198.547 26.664 198.803 26.152C199.059 25.64 199.363 25.064 199.715 24.424C200.099 23.784 200.547 23.064 201.059 22.264L198.659 23.656C198.243 23.88 197.875 24.072 197.555 24.232C197.235 24.392 196.947 24.504 196.691 24.568C196.659 24.568 196.627 24.584 196.595 24.616C196.595 24.616 196.579 24.616 196.547 24.616C196.387 24.616 196.307 24.488 196.307 24.232C196.307 23.88 196.419 23.448 196.643 22.936C196.899 22.424 197.139 22.088 197.363 21.928C197.779 21.704 198.163 21.512 198.515 21.352C198.867 21.192 199.171 21.08 199.427 21.016C199.523 20.984 199.635 20.952 199.763 20.92C199.891 20.856 200.035 20.808 200.195 20.776C200.483 20.68 200.867 20.536 201.347 20.344C201.827 20.12 202.211 19.992 202.499 19.96C202.499 19.96 202.611 19.8 202.835 19.48C203.059 19.128 203.395 18.616 203.843 17.944C205.187 15.864 206.019 14.536 206.339 13.96C207.107 12.584 207.795 11.512 208.403 10.744C208.755 10.264 209.251 10.024 209.891 10.024C210.339 10.024 210.755 10.136 211.139 10.36C211.523 10.584 211.715 10.824 211.715 11.08C211.715 11.24 211.651 11.368 211.523 11.464C210.627 12.232 209.555 13.32 208.307 14.728C207.091 16.104 205.891 17.576 204.707 19.144C207.267 18.472 209.667 18.136 211.907 18.136C212.419 18.136 212.787 18.184 213.011 18.28C213.267 18.44 213.395 18.584 213.395 18.712C213.395 18.808 213.299 18.936 213.107 19.096C213.011 19.16 212.883 19.208 212.723 19.24C212.595 19.272 212.451 19.304 212.291 19.336C211.075 19.4 210.003 19.512 209.075 19.672C208.147 19.832 207.235 20.056 206.339 20.344C205.475 20.6 204.499 20.952 203.411 21.4C202.739 22.36 202.179 23.176 201.731 23.848C201.283 24.488 200.915 25.096 200.627 25.672C200.339 26.216 200.067 26.824 199.811 27.496C199.555 28.136 199.283 28.936 198.995 29.896C198.675 30.856 198.515 31.624 198.515 32.2C198.515 33.096 198.915 33.64 199.715 33.832C200.003 33.864 200.147 34.024 200.147 34.312C200.147 34.6 200.003 34.872 199.715 35.128C199.459 35.416 199.187 35.528 198.899 35.464ZM211.12 31.816C209.872 31.816 209.248 31.256 209.248 30.136C209.248 30.072 209.248 29.96 209.248 29.8C209.28 29.64 209.312 29.448 209.344 29.224C209.664 27.912 210.304 26.648 211.264 25.432C212.256 24.184 213.392 23.096 214.672 22.168C215.152 21.784 215.92 21.592 216.976 21.592C217.584 21.592 218.112 21.688 218.56 21.88C219.04 22.04 219.376 22.296 219.568 22.648C219.76 22.968 219.856 23.336 219.856 23.752C219.856 23.816 219.84 23.912 219.808 24.04C219.808 24.168 219.792 24.312 219.76 24.472C219.824 24.44 219.92 24.424 220.048 24.424C220.208 24.424 220.4 24.408 220.624 24.376C220.848 24.344 221.056 24.312 221.248 24.28C221.472 24.248 221.696 24.232 221.92 24.232H222.112C222.464 24.232 222.496 24.376 222.208 24.664C221.952 24.92 221.6 25.08 221.152 25.144L219.52 25.336C219.2 26.232 218.64 27.128 217.84 28.024C217.072 28.92 216.208 29.704 215.248 30.376C214.32 31.016 213.44 31.432 212.608 31.624C212.128 31.752 211.632 31.816 211.12 31.816ZM217.264 24.664C217.456 24.664 217.68 24.664 217.936 24.664C218.224 24.632 218.544 24.6 218.896 24.568C218.928 24.504 218.944 24.36 218.944 24.136C218.944 23.56 218.704 23.16 218.224 22.936C217.968 22.776 217.648 22.696 217.264 22.696C216.784 22.696 216.288 22.856 215.776 23.176C215.296 23.464 214.784 23.848 214.24 24.328C214.912 24.552 215.92 24.664 217.264 24.664ZM212.56 30.136C212.88 30.136 213.328 29.992 213.904 29.704C214.512 29.384 215.136 28.968 215.776 28.456C216.416 27.944 216.992 27.4 217.504 26.824C217.664 26.664 217.824 26.472 217.984 26.248C218.144 25.992 218.32 25.736 218.512 25.48L217.36 25.624C215.568 25.88 213.968 26.024 212.56 26.056C211.856 27.208 211.424 28.168 211.264 28.936C211.232 29.352 211.344 29.656 211.6 29.848C211.856 30.04 212.176 30.136 212.56 30.136ZM229.808 32.392C228.976 32.392 228.56 31.784 228.56 30.568C228.56 29.32 228.992 27.48 229.856 25.048C228.832 26.36 227.808 27.528 226.784 28.552C225.792 29.544 224.8 30.36 223.808 31C223.104 31.512 222.464 31.768 221.888 31.768C221.12 31.768 220.736 31.24 220.736 30.184C220.736 29.608 220.832 29.08 221.024 28.6C221.28 27.896 221.648 27.08 222.128 26.152C222.64 25.224 223.232 24.296 223.904 23.368C224.576 22.44 225.264 21.656 225.968 21.016C226.224 20.856 226.384 20.776 226.448 20.776C226.672 20.776 226.784 20.904 226.784 21.16C226.784 21.256 226.736 21.384 226.64 21.544C226.352 21.864 226.016 22.328 225.632 22.936C225.248 23.544 224.88 24.2 224.528 24.904C224.176 25.608 223.872 26.264 223.616 26.872C223.392 27.448 223.28 27.88 223.28 28.168C223.28 28.744 223.536 29.032 224.048 29.032C224.272 29.032 224.512 28.952 224.768 28.792C225.952 28.056 227.04 27.176 228.032 26.152C229.024 25.096 229.952 23.672 230.816 21.88C231.104 21.688 231.424 21.592 231.776 21.592C232.128 21.592 232.416 21.704 232.64 21.928C232.896 22.152 233.024 22.456 233.024 22.84C233.024 23.128 232.944 23.464 232.784 23.848C232.752 23.976 232.688 24.104 232.592 24.232C232.528 24.36 232.448 24.504 232.352 24.664C232.256 24.824 232.176 24.984 232.112 25.144C232.048 25.272 231.984 25.384 231.92 25.48C231.312 26.568 230.832 27.48 230.48 28.216C230.16 28.952 230 29.592 230 30.136C230 30.776 230.288 31.096 230.864 31.096C231.376 31.096 231.888 30.904 232.4 30.52C232.72 30.296 232.992 30.184 233.216 30.184C233.568 30.184 233.488 30.408 232.976 30.856C232.496 31.272 231.904 31.656 231.2 32.008C230.528 32.264 230.064 32.392 229.808 32.392ZM234.62 31.768C234.044 31.768 233.756 31.544 233.756 31.096C233.756 30.808 233.852 30.44 234.044 29.992C234.268 29.544 234.492 29.112 234.716 28.696C235.324 27.608 235.884 26.552 236.396 25.528C236.908 24.504 237.404 23.416 237.884 22.264C238.108 21.752 238.444 21.496 238.892 21.496C239.372 21.496 239.516 21.784 239.324 22.36C239.132 22.84 238.94 23.272 238.748 23.656C237.852 25.48 237.404 26.712 237.404 27.352C237.404 27.64 237.5 27.816 237.692 27.88C238.14 27.528 238.476 27.272 238.7 27.112C238.924 26.92 239.052 26.808 239.084 26.776C239.532 26.424 240.028 26.024 240.572 25.576C241.148 25.096 241.772 24.552 242.444 23.944C243.5 22.984 244.38 22.504 245.084 22.504C245.948 22.504 246.316 23.288 246.188 24.856C246.156 25.464 246.156 26.056 246.188 26.632C246.22 26.76 246.236 26.952 246.236 27.208C246.236 27.432 246.236 27.704 246.236 28.024C246.236 28.344 246.428 28.504 246.812 28.504C247.26 28.504 247.676 28.376 248.06 28.12L249.116 27.4L250.172 26.728C250.236 26.696 250.348 26.68 250.508 26.68C250.7 26.68 250.7 26.824 250.508 27.112C248.492 29.608 246.828 30.856 245.516 30.856C245.26 30.856 245.004 30.808 244.748 30.712C244.524 30.616 244.364 30.344 244.268 29.896C244.172 29.416 244.108 28.904 244.076 28.36C244.076 27.816 244.076 27.4 244.076 27.112L244.124 25.528C244.124 24.856 243.948 24.52 243.596 24.52C242.764 24.52 240.716 26.232 237.452 29.656C237.196 29.976 236.796 30.408 236.252 30.952C235.708 31.496 235.164 31.768 234.62 31.768ZM259.787 34.6C259.307 34.6 258.955 34.36 258.731 33.88C258.699 33.848 258.683 33.752 258.683 33.592C258.683 33.432 258.763 33.064 258.923 32.488C258.987 32.328 259.035 32.168 259.067 32.008C259.131 31.848 259.195 31.688 259.259 31.528C259.323 31.368 259.387 31.192 259.451 31C259.515 30.776 259.579 30.552 259.643 30.328C259.771 29.848 259.835 29.448 259.835 29.128C259.835 28.68 259.691 28.456 259.403 28.456C259.307 28.456 259.131 28.536 258.875 28.696C258.459 29.016 258.011 29.32 257.531 29.608C257.083 29.896 256.603 30.168 256.091 30.424L254.555 31.24L253.547 31.816C253.451 31.848 253.227 31.992 252.875 32.248C252.555 32.44 252.219 32.536 251.867 32.536C251.451 32.536 250.987 32.312 250.475 31.864C250.091 31.48 249.899 31.08 249.899 30.664C249.899 30.312 250.075 29.816 250.427 29.176C250.683 28.76 251.115 28.248 251.723 27.64C251.979 27.384 252.187 27.16 252.347 26.968C252.539 26.744 252.699 26.568 252.827 26.44C254.171 24.648 256.251 23.064 259.067 21.688C259.867 21.272 260.587 21.064 261.227 21.064C261.931 21.064 262.491 21.352 262.907 21.928C263.099 21.544 263.403 21 263.819 20.296C264.267 19.56 264.747 18.76 265.259 17.896C265.803 17.032 266.315 16.216 266.795 15.448C267.307 14.68 267.707 14.088 267.995 13.672C268.859 12.488 269.563 11.592 270.107 10.984C270.651 10.408 271.147 10.12 271.595 10.12C271.755 10.12 271.963 10.2 272.219 10.36C272.443 10.552 272.555 10.808 272.555 11.128C272.555 11.608 272.347 12.168 271.931 12.808C271.515 13.448 270.939 14.232 270.203 15.16C270.139 15.256 270.043 15.384 269.915 15.544C269.787 15.672 269.643 15.848 269.483 16.072C269.131 16.584 268.763 17.128 268.379 17.704C267.995 18.248 267.579 18.792 267.131 19.336C266.491 20.168 265.819 21.08 265.115 22.072C264.411 23.032 263.755 24.04 263.147 25.096C262.603 26.056 262.139 27.048 261.755 28.072C261.371 29.064 261.051 30.072 260.795 31.096C260.763 31.32 260.731 31.496 260.699 31.624C260.699 31.784 260.699 31.896 260.699 31.96L260.747 32.68C260.779 32.776 260.795 33 260.795 33.352C260.795 34.184 260.459 34.6 259.787 34.6ZM253.211 30.472C253.563 30.472 253.883 30.408 254.171 30.28C255.387 29.864 256.539 29.336 257.627 28.696C258.715 28.056 259.867 27.192 261.083 26.104C261.243 25.656 261.435 25.176 261.659 24.664C261.883 24.152 262.123 23.592 262.379 22.984C261.995 22.184 261.435 21.784 260.699 21.784C260.219 21.784 259.707 21.944 259.163 22.264C258.619 22.584 258.011 23.016 257.339 23.56C256.699 24.072 256.043 24.648 255.371 25.288C254.731 25.928 254.171 26.552 253.691 27.16C253.211 27.736 252.875 28.216 252.683 28.6C252.491 28.92 252.395 29.288 252.395 29.704C252.395 30.216 252.667 30.472 253.211 30.472ZM272.807 32.296C272.743 32.296 272.679 32.28 272.615 32.248C272.551 32.248 272.487 32.232 272.423 32.2C271.975 31.976 271.687 31.656 271.559 31.24C271.431 30.824 271.399 30.296 271.463 29.656C271.527 29.4 271.591 28.952 271.655 28.312C271.751 27.672 271.863 27.16 271.991 26.776L269.543 29.128L268.199 30.424C267.271 31.352 266.503 31.816 265.895 31.816C265.639 31.816 265.431 31.72 265.271 31.528C264.983 31.176 264.839 30.744 264.839 30.232C264.839 29.56 265.015 28.84 265.367 28.072C265.719 27.304 266.135 26.568 266.615 25.864C267.095 25.128 267.527 24.52 267.911 24.04C268.871 22.856 269.799 21.928 270.695 21.256C271.623 20.584 272.583 20.248 273.575 20.248C274.119 20.248 274.647 20.344 275.159 20.536C275.703 20.728 276.199 21.048 276.647 21.496L276.695 21.544C276.695 21.64 276.615 21.736 276.455 21.832C276.391 21.896 276.327 21.944 276.263 21.976C276.231 22.008 276.199 22.04 276.167 22.072C275.783 22.456 275.351 23.096 274.871 23.992C274.391 24.888 273.975 25.832 273.623 26.824C273.271 27.784 273.095 28.616 273.095 29.32C273.095 29.96 273.255 30.392 273.575 30.616C273.735 30.712 273.911 30.76 274.103 30.76C274.519 30.76 275.095 30.504 275.831 29.992C275.863 29.96 275.927 29.912 276.023 29.848C276.151 29.752 276.327 29.624 276.551 29.464C276.807 29.272 277.015 29.176 277.175 29.176C277.335 29.176 277.415 29.24 277.415 29.368C277.415 29.56 277.287 29.784 277.031 30.04C276.839 30.2 276.615 30.376 276.359 30.568C276.135 30.76 275.863 30.952 275.543 31.144C275.063 31.496 274.567 31.768 274.055 31.96C273.543 32.184 273.127 32.296 272.807 32.296ZM267.383 29.224C268.055 29.224 269.303 28.232 271.127 26.248C271.607 25.704 272.039 25.192 272.423 24.712C272.807 24.2 273.159 23.704 273.479 23.224C274.055 22.296 274.247 21.656 274.055 21.304C273.959 21.112 273.767 21.016 273.479 21.016C273.127 21.016 272.647 21.208 272.039 21.592C271.431 21.944 270.807 22.408 270.167 22.984C269.559 23.56 268.999 24.136 268.487 24.712C268.135 25.16 267.783 25.784 267.431 26.584C267.079 27.384 266.903 28.04 266.903 28.552C266.903 29 267.063 29.224 267.383 29.224ZM277.516 35.464C277.356 35.464 277.276 35.32 277.276 35.032C277.276 34.968 277.276 34.872 277.276 34.744C277.308 34.648 277.34 34.536 277.372 34.408L279.436 29.224L281.884 23.176C281.5 23.144 280.94 23.16 280.204 23.224C279.468 23.256 278.844 23.32 278.332 23.416C278.14 23.448 277.98 23.48 277.852 23.512C277.756 23.512 277.676 23.512 277.612 23.512C277.356 23.512 277.18 23.4 277.084 23.176C277.116 22.984 277.292 22.808 277.612 22.648C277.772 22.584 277.964 22.536 278.188 22.504C278.412 22.44 278.684 22.376 279.004 22.312C279.356 22.248 279.66 22.2 279.916 22.168C280.204 22.136 280.412 22.104 280.54 22.072C280.7 22.04 280.86 22.008 281.02 21.976C281.18 21.944 281.372 21.912 281.596 21.88C281.788 21.848 281.996 21.816 282.22 21.784C282.444 21.752 282.684 21.704 282.94 21.64C283.196 21.288 283.58 20.664 284.092 19.768C284.604 18.872 285.26 17.688 286.06 16.216C286.7 15.032 287.212 14.104 287.596 13.432C288.012 12.728 288.3 12.264 288.46 12.04C288.748 11.656 289.084 11.464 289.468 11.464C289.66 11.464 289.756 11.544 289.756 11.704C289.756 11.736 289.676 11.944 289.516 12.328C289.324 12.648 289.004 13.24 288.556 14.104C288.108 14.968 287.628 15.912 287.116 16.936C286.604 17.96 286.14 18.92 285.724 19.816C285.308 20.712 285.02 21.368 284.86 21.784C285.02 21.752 285.196 21.736 285.388 21.736C285.612 21.736 285.884 21.736 286.204 21.736C286.556 21.736 286.876 21.752 287.164 21.784C287.484 21.784 287.756 21.8 287.98 21.832C288.428 21.928 288.652 22.056 288.652 22.216C288.652 22.28 288.508 22.392 288.22 22.552C288.06 22.616 287.756 22.68 287.308 22.744C286.86 22.808 286.268 22.872 285.532 22.936C285.34 22.936 285.132 22.952 284.908 22.984C284.684 22.984 284.444 23 284.188 23.032C283.228 24.6 281.916 27.208 280.252 30.856C279.644 32.072 279.18 33.016 278.86 33.688C278.54 34.36 278.348 34.76 278.284 34.888C277.996 35.272 277.74 35.464 277.516 35.464ZM290.042 20.488C289.626 20.488 289.418 20.392 289.418 20.2C289.418 20.04 289.53 19.816 289.754 19.528C290.01 19.208 290.298 18.936 290.618 18.712C291.322 18.264 291.866 17.88 292.25 17.56C292.666 17.24 293.162 16.696 293.738 15.928C293.77 15.992 293.786 16.12 293.786 16.312C293.786 16.728 293.61 17.24 293.258 17.848C292.938 18.424 292.57 18.952 292.154 19.432C291.738 19.912 291.37 20.216 291.05 20.344C290.762 20.44 290.426 20.488 290.042 20.488ZM285.77 32.248C285.514 32.248 285.274 32.152 285.05 31.96C284.826 31.768 284.714 31.512 284.714 31.192C284.714 30.52 285.178 29.288 286.106 27.496L286.634 26.44C286.698 26.376 286.778 26.216 286.874 25.96C287.002 25.704 287.178 25.368 287.402 24.952C287.626 24.504 287.802 24.104 287.93 23.752C288.058 23.4 288.154 23.064 288.218 22.744C288.218 22.712 288.282 22.648 288.41 22.552C288.538 22.456 288.666 22.376 288.794 22.312L289.082 22.264C289.338 22.264 289.546 22.312 289.706 22.408C289.898 22.504 289.962 22.632 289.898 22.792C289.674 23.272 289.482 23.688 289.322 24.04C289.162 24.392 289.034 24.696 288.938 24.952H288.89C288.538 25.752 288.234 26.52 287.978 27.256C287.754 27.96 287.658 28.632 287.69 29.272L287.738 30.568C287.706 30.888 287.594 31.16 287.402 31.384C287.274 31.48 287.098 31.592 286.874 31.72C286.65 31.88 286.362 32.04 286.01 32.2C285.978 32.232 285.898 32.248 285.77 32.248ZM291.932 31.816C290.684 31.816 290.06 31.256 290.06 30.136C290.06 30.072 290.06 29.96 290.06 29.8C290.092 29.64 290.124 29.448 290.156 29.224C290.476 27.912 291.116 26.648 292.076 25.432C293.068 24.184 294.204 23.096 295.484 22.168C295.964 21.784 296.732 21.592 297.788 21.592C298.396 21.592 298.924 21.688 299.372 21.88C299.852 22.04 300.188 22.296 300.38 22.648C300.572 22.968 300.668 23.336 300.668 23.752C300.668 23.816 300.652 23.912 300.62 24.04C300.62 24.168 300.604 24.312 300.572 24.472C300.636 24.44 300.732 24.424 300.86 24.424C301.02 24.424 301.212 24.408 301.436 24.376C301.66 24.344 301.868 24.312 302.06 24.28C302.284 24.248 302.508 24.232 302.732 24.232H302.924C303.276 24.232 303.308 24.376 303.02 24.664C302.764 24.92 302.412 25.08 301.964 25.144L300.332 25.336C300.012 26.232 299.452 27.128 298.652 28.024C297.884 28.92 297.02 29.704 296.06 30.376C295.132 31.016 294.252 31.432 293.42 31.624C292.94 31.752 292.444 31.816 291.932 31.816ZM298.076 24.664C298.268 24.664 298.492 24.664 298.748 24.664C299.036 24.632 299.356 24.6 299.708 24.568C299.74 24.504 299.756 24.36 299.756 24.136C299.756 23.56 299.516 23.16 299.036 22.936C298.78 22.776 298.46 22.696 298.076 22.696C297.596 22.696 297.1 22.856 296.588 23.176C296.108 23.464 295.596 23.848 295.052 24.328C295.724 24.552 296.732 24.664 298.076 24.664ZM293.372 30.136C293.692 30.136 294.14 29.992 294.716 29.704C295.324 29.384 295.948 28.968 296.588 28.456C297.228 27.944 297.804 27.4 298.316 26.824C298.476 26.664 298.636 26.472 298.796 26.248C298.956 25.992 299.132 25.736 299.324 25.48L298.172 25.624C296.38 25.88 294.78 26.024 293.372 26.056C292.668 27.208 292.236 28.168 292.076 28.936C292.044 29.352 292.156 29.656 292.412 29.848C292.668 30.04 292.988 30.136 293.372 30.136ZM301.932 31.768C301.356 31.768 301.068 31.544 301.068 31.096C301.068 30.808 301.164 30.44 301.356 29.992C301.58 29.544 301.804 29.112 302.028 28.696C302.636 27.608 303.196 26.552 303.708 25.528C304.22 24.504 304.716 23.416 305.196 22.264C305.42 21.752 305.756 21.496 306.204 21.496C306.684 21.496 306.828 21.784 306.636 22.36C306.444 22.84 306.252 23.272 306.06 23.656C305.164 25.48 304.716 26.712 304.716 27.352C304.716 27.64 304.812 27.816 305.004 27.88C305.452 27.528 305.788 27.272 306.012 27.112C306.236 26.92 306.364 26.808 306.396 26.776C306.844 26.424 307.34 26.024 307.884 25.576C308.46 25.096 309.084 24.552 309.756 23.944C310.812 22.984 311.692 22.504 312.396 22.504C313.26 22.504 313.628 23.288 313.5 24.856C313.468 25.464 313.468 26.056 313.5 26.632C313.532 26.76 313.548 26.952 313.548 27.208C313.548 27.432 313.548 27.704 313.548 28.024C313.548 28.344 313.74 28.504 314.124 28.504C314.572 28.504 314.988 28.376 315.372 28.12L316.428 27.4L317.484 26.728C317.548 26.696 317.66 26.68 317.82 26.68C318.012 26.68 318.012 26.824 317.82 27.112C315.804 29.608 314.14 30.856 312.828 30.856C312.572 30.856 312.316 30.808 312.06 30.712C311.836 30.616 311.676 30.344 311.58 29.896C311.484 29.416 311.42 28.904 311.388 28.36C311.388 27.816 311.388 27.4 311.388 27.112L311.436 25.528C311.436 24.856 311.26 24.52 310.908 24.52C310.076 24.52 308.028 26.232 304.764 29.656C304.508 29.976 304.108 30.408 303.564 30.952C303.02 31.496 302.476 31.768 301.932 31.768Z" fill="white"/>
</svg>
